<svg width="174" height="16" viewBox="0 0 174 16" fill="none" xmlns="http://www.w3.org/2000/svg">
<path d="M15.3503 1.73474V15.8144H12.5264V6.65656L8.75431 15.8144H6.61615L2.82393 6.65656V15.8144H-6.10352e-05V1.73474H3.20719L7.68523 12.2037L12.1633 1.73474H15.3503Z" fill="#001432"/>
<path d="M28.0381 11.0743H19.8687C19.9363 11.8812 20.2187 12.5136 20.7159 12.9705C21.2131 13.4273 21.8254 13.6563 22.5515 13.6563C23.6004 13.6563 24.3468 13.2054 24.7905 12.3048H27.8364C27.5137 13.3809 26.8954 14.2644 25.9807 14.9573C25.0659 15.6502 23.9433 15.9962 22.612 15.9962C21.5359 15.9962 20.5717 15.7571 19.7174 15.2801C18.8632 14.803 18.1975 14.1273 17.7205 13.2528C17.2434 12.3784 17.0044 11.3699 17.0044 10.2271C17.0044 9.08443 17.2394 8.05569 17.7104 7.18126C18.1814 6.30684 18.84 5.63513 19.6872 5.16413C20.5344 4.69313 21.5097 4.45813 22.612 4.45813C23.7144 4.45813 24.6261 4.68707 25.4663 5.14396C26.3064 5.60084 26.959 6.25036 27.4229 7.09049C27.8868 7.93063 28.1188 8.89583 28.1188 9.98509C28.1188 10.3885 28.0916 10.7516 28.0381 11.0743ZM25.194 9.17823C25.1809 8.45206 24.9186 7.87012 24.4073 7.43341C23.8959 6.9967 23.2706 6.77784 22.5313 6.77784C21.8324 6.77784 21.2434 6.98964 20.7664 7.41324C20.2893 7.83683 19.9968 8.42483 19.8889 9.17823H25.194Z" fill="#001432"/>
<path d="M39.1936 5.73879C40.0136 6.57893 40.424 7.7529 40.424 9.2587V15.8144H37.6V9.64195C37.6 8.75441 37.3782 8.07161 36.9344 7.59456C36.4906 7.11751 35.8855 6.87847 35.119 6.87847C34.3525 6.87847 33.7241 7.11751 33.2733 7.59456C32.8225 8.07161 32.5976 8.75441 32.5976 9.64195V15.8144H29.7736V4.63945H32.5976V6.03128C32.9737 5.54716 33.4548 5.16693 34.0398 4.89159C34.6248 4.61625 35.2672 4.47808 35.9662 4.47808C37.2975 4.47808 38.3736 4.89865 39.1936 5.73879Z" fill="#001432"/>
<path d="M53.2525 4.63937V15.8143H50.4083V14.4023C50.0452 14.8864 49.5712 15.2667 48.9862 15.542C48.4013 15.8173 47.7659 15.9555 47.08 15.9555C46.2056 15.9555 45.433 15.7709 44.7603 15.4008C44.0876 15.0307 43.5601 14.486 43.1769 13.7669C42.7936 13.0478 42.602 12.1905 42.602 11.1951V4.63937H45.426V10.7916C45.426 11.6792 45.6479 12.362 46.0916 12.839C46.5354 13.3161 47.1405 13.5551 47.9071 13.5551C48.6736 13.5551 49.2989 13.3161 49.7427 12.839C50.1864 12.362 50.4083 11.6792 50.4083 10.7916V4.63937H53.2525Z" fill="#001432"/>
<path d="M70.418 1.73474V4.01411H66.6661V15.8144H63.8421V4.01411H60.0902V1.73474H70.418Z" fill="#001432"/>
<path d="M75.8138 4.98237C76.3987 4.64651 77.0674 4.47808 77.8208 4.47808V7.44327H77.0745C76.1869 7.44327 75.5183 7.65205 75.0674 8.06858C74.6166 8.48512 74.3917 9.21129 74.3917 10.2471V15.8144H71.5677V4.63945H74.3917V6.37419C74.7548 5.78216 75.2288 5.31822 75.8138 4.98237Z" fill="#001432"/>
<path d="M79.6668 7.18126C80.1176 6.30684 80.7288 5.63513 81.5024 5.16413C82.2759 4.69313 83.1393 4.45813 84.0944 4.45813C84.9285 4.45813 85.6577 4.62656 86.283 4.96241C86.9083 5.29827 87.4095 5.72187 87.7857 6.23321V4.63967H90.6299V15.8146H87.7857V14.1807C87.4227 14.7052 86.9214 15.1389 86.283 15.4818C85.6446 15.8247 84.9083 15.9962 84.0742 15.9962C83.1332 15.9962 82.2759 15.7541 81.5024 15.27C80.7288 14.7859 80.1176 14.1031 79.6668 13.2226C79.2159 12.3421 78.991 11.3295 78.991 10.1868C78.991 9.04409 79.2159 8.05569 79.6668 7.18126ZM87.3823 8.46215C87.113 7.97097 86.7499 7.59478 86.2931 7.33255C85.8362 7.07032 85.345 6.93921 84.8206 6.93921C84.2961 6.93921 83.812 7.0673 83.3682 7.32246C82.9244 7.57763 82.5644 7.9508 82.289 8.44198C82.0137 8.93315 81.8755 9.51408 81.8755 10.1868C81.8755 10.8595 82.0137 11.4475 82.289 11.9518C82.5644 12.4561 82.9275 12.8424 83.3783 13.1116C83.8291 13.3809 84.3092 13.5151 84.8206 13.5151C85.3319 13.5151 85.8362 13.384 86.2931 13.1217C86.7499 12.8595 87.113 12.4833 87.3823 11.9921C87.6516 11.501 87.7857 10.913 87.7857 10.2271C87.7857 9.54132 87.6516 8.95332 87.3823 8.46215Z" fill="#001432"/>
<path d="M102.411 5.73879C103.23 6.57893 103.641 7.7529 103.641 9.2587V15.8144H100.817V9.64195C100.817 8.75441 100.595 8.07161 100.151 7.59456C99.7075 7.11751 99.1024 6.87847 98.3359 6.87847C97.5694 6.87847 96.941 7.11751 96.4902 7.59456C96.0394 8.07161 95.8145 8.75441 95.8145 9.64195V15.8144H92.9905V4.63945H95.8145V6.03128C96.1907 5.54716 96.6718 5.16693 97.2567 4.89159C97.8417 4.61625 98.4842 4.47808 99.1831 4.47808C100.514 4.47808 101.591 4.89865 102.411 5.73879Z" fill="#001432"/>
<path d="M107.735 15.502C107.009 15.1722 106.434 14.7254 106.011 14.1606C105.587 13.5958 105.355 12.9704 105.315 12.2846H108.159C108.212 12.7153 108.424 13.0713 108.794 13.3537C109.164 13.6361 109.624 13.7773 110.176 13.7773C110.728 13.7773 111.134 13.6694 111.437 13.4546C111.739 13.2397 111.891 12.9634 111.891 12.6275C111.891 12.2645 111.706 11.9921 111.336 11.8106C110.966 11.6291 110.378 11.4304 109.571 11.2155C108.737 11.0138 108.055 10.8051 107.523 10.5902C106.992 10.3754 106.535 10.0456 106.152 9.60183C105.768 9.15806 105.577 8.55998 105.577 7.80658C105.577 7.18833 105.755 6.62353 106.111 6.11218C106.467 5.60084 106.979 5.19741 107.644 4.9019C108.31 4.60639 109.094 4.45813 109.994 4.45813C111.326 4.45813 112.388 4.79096 113.181 5.45661C113.975 6.12227 114.412 7.01989 114.493 8.14949H111.79C111.749 7.70572 111.565 7.35272 111.235 7.09049C110.905 6.82827 110.465 6.69715 109.914 6.69715C109.402 6.69715 109.009 6.79095 108.734 6.97955C108.458 7.16815 108.32 7.43038 108.32 7.76623C108.32 8.14243 108.509 8.42886 108.885 8.62352C109.261 8.81817 109.846 9.01686 110.64 9.21857C111.447 9.42029 112.112 9.62906 112.637 9.84389C113.161 10.0587 113.615 10.3915 113.998 10.8424C114.382 11.2932 114.58 11.8883 114.593 12.6275C114.593 13.273 114.415 13.8509 114.059 14.3623C113.703 14.8736 113.192 15.273 112.526 15.5625C111.86 15.8519 111.084 15.9962 110.196 15.9962C109.309 15.9962 108.461 15.8318 107.735 15.502Z" fill="#001432"/>
<path d="M121.857 13.996C121.796 13.882 121.691 13.8245 121.544 13.8245C121.514 13.8245 121.482 13.8265 121.448 13.8316C121.355 13.8447 121.261 13.8548 121.168 13.8618C121.076 13.8689 120.978 13.8719 120.867 13.8719C120.393 13.8719 120.022 13.7257 119.767 13.4362C119.51 13.1468 119.38 12.6909 119.38 12.0817V2.66169C119.38 2.24011 119.265 1.91434 119.039 1.69548C118.813 1.47662 118.491 1.36568 118.084 1.36568C117.676 1.36568 117.357 1.47662 117.138 1.69548C116.919 1.91434 116.808 2.2391 116.808 2.66169V12.2027C116.808 13.4403 117.095 14.3934 117.661 15.0338C118.228 15.6752 119.083 16 120.202 16C120.347 16 120.497 15.9929 120.648 15.9798C120.796 15.9667 120.937 15.9526 121.071 15.9395C121.387 15.8981 121.617 15.7791 121.755 15.5865C121.892 15.3949 121.962 15.1246 121.962 14.7847C121.962 14.3873 121.927 14.1291 121.858 13.996H121.857Z" fill="#001432"/>
<path d="M123.297 7.18126C123.748 6.30684 124.359 5.63513 125.133 5.16413C125.906 4.69313 126.77 4.45813 127.725 4.45813C128.559 4.45813 129.288 4.62656 129.914 4.96241C130.539 5.29827 131.04 5.72187 131.416 6.23321V4.63967H134.26V15.8146H131.416V14.1807C131.053 14.7052 130.552 15.1389 129.914 15.4818C129.275 15.8247 128.539 15.9962 127.705 15.9962C126.764 15.9962 125.906 15.7541 125.133 15.27C124.359 14.7859 123.748 14.1031 123.297 13.2226C122.846 12.3421 122.622 11.3295 122.622 10.1868C122.622 9.04409 122.846 8.05569 123.297 7.18126ZM131.013 8.46215C130.744 7.97097 130.38 7.59478 129.924 7.33255C129.467 7.07032 128.976 6.93921 128.451 6.93921C127.927 6.93921 127.443 7.0673 126.999 7.32246C126.555 7.57763 126.195 7.9508 125.92 8.44198C125.644 8.93315 125.506 9.51408 125.506 10.1868C125.506 10.8595 125.644 11.4475 125.92 11.9518C126.195 12.4561 126.558 12.8424 127.009 13.1116C127.46 13.3809 127.94 13.5151 128.451 13.5151C128.962 13.5151 129.467 13.384 129.924 13.1217C130.38 12.8595 130.744 12.4833 131.013 11.9921C131.282 11.501 131.416 10.913 131.416 10.2271C131.416 9.54132 131.282 8.95332 131.013 8.46215Z" fill="#001432"/>
<path d="M140.312 6.95928V12.3652C140.312 12.7414 140.403 13.0137 140.584 13.1821C140.766 13.3506 141.071 13.4343 141.502 13.4343H142.813V15.8145H141.038C138.658 15.8145 137.468 14.6577 137.468 12.345V6.95928H136.136V4.63957H137.468V1.87609H140.312V4.63957H142.813V6.95928H140.312Z" fill="#001432"/>
<path d="M147.675 4.63937H144.851V15.8143H147.675V4.63937Z" fill="#001432"/>
<path d="M146.283 3.30812C146.78 3.30812 147.194 3.14977 147.524 2.83409C147.854 2.51841 148.018 2.12507 148.018 1.65407C148.018 1.18307 147.854 0.789724 147.524 0.474042C147.194 0.15836 146.78 1.52588e-05 146.283 1.52588e-05C145.786 1.52588e-05 145.372 0.15836 145.043 0.474042C144.713 0.789724 144.548 1.18307 144.548 1.65407C144.548 2.12507 144.713 2.51841 145.043 2.83409C145.372 3.14977 145.786 3.30812 146.283 3.30812Z" fill="#FBBD48"/>
<path d="M152.112 15.2801C151.252 14.803 150.576 14.1273 150.085 13.2528C149.594 12.3784 149.349 11.3699 149.349 10.2271C149.349 9.08443 149.601 8.07587 150.105 7.20144C150.61 6.32701 151.298 5.65127 152.173 5.17421C153.047 4.69716 154.022 4.45813 155.098 4.45813C156.174 4.45813 157.148 4.69716 158.023 5.17421C158.897 5.65127 159.586 6.32701 160.09 7.20144C160.594 8.07587 160.847 9.08443 160.847 10.2271C160.847 11.3699 160.587 12.3784 160.07 13.2528C159.553 14.1273 158.853 14.803 157.972 15.2801C157.092 15.7571 156.106 15.9962 155.017 15.9962C153.928 15.9962 152.973 15.7571 152.112 15.2801ZM156.459 13.1621C156.91 12.913 157.269 12.5398 157.538 12.0426C157.808 11.5453 157.942 10.9402 157.942 10.2271C157.942 9.16512 157.662 8.34818 157.105 7.77632C156.547 7.20446 155.864 6.91904 155.057 6.91904C154.251 6.91904 153.575 7.20446 153.03 7.77632C152.486 8.34818 152.213 9.16512 152.213 10.2271C152.213 11.2892 152.478 12.1061 153.01 12.678C153.541 13.2498 154.21 13.5352 155.017 13.5352C155.528 13.5352 156.008 13.4112 156.459 13.1621Z" fill="#001432"/>
<path d="M171.94 5.73879C172.76 6.57893 173.171 7.7529 173.171 9.2587V15.8144H170.347V9.64195C170.347 8.75441 170.125 8.07161 169.681 7.59456C169.237 7.11751 168.632 6.87847 167.865 6.87847C167.099 6.87847 166.471 7.11751 166.02 7.59456C165.569 8.07161 165.344 8.75441 165.344 9.64195V15.8144H162.52V4.63945H165.344V6.03128C165.72 5.54716 166.201 5.16693 166.786 4.89159C167.371 4.61625 168.014 4.47808 168.713 4.47808C170.044 4.47808 171.12 4.89865 171.94 5.73879Z" fill="#001432"/>
</svg>
